<svg xmlns="http://www.w3.org/2000/svg" viewBox="0 0 512 512" role="img" aria-label="Tether">
  <rect width="512" height="512" rx="104" fill="#EEE9DC"/>
  <g transform="translate(256 228)">
    <path
      d="M0 -92 C-34 -62 -52 -24 -52 18 C-52 62 -28 92 0 92 C28 92 52 62 52 18 C52 -24 34 -62 0 -92 Z"
      fill="#4A7B5F"
    />
    <path
      d="M-8 -18 C-2 -34 6 -48 18 -62 C10 -44 4 -28 0 -10 C-4 -28 -10 -44 -18 -62 C-6 -48 2 -34 8 -18 Z"
      fill="#EEE9DC"
    />
    <path
      d="M-6 8 C0 -8 8 -24 20 -38"
      stroke="#EEE9DC"
      stroke-width="8"
      stroke-linecap="round"
      fill="none"
    />
  </g>
  <text
    x="256"
    y="318"
    text-anchor="middle"
    font-family="Inter, 'Malgun Gothic', 'Apple SD Gothic Neo', sans-serif"
    font-size="72"
    font-weight="700"
    fill="#4A7B5F"
  >Tether</text>
  <text
    x="256"
    y="368"
    text-anchor="middle"
    font-family="'Malgun Gothic', 'Apple SD Gothic Neo', sans-serif"
    font-size="28"
    fill="#6B8574"
  >우리만의 공간</text>
</svg>
